M48
METRIC,LZ,000.000
;FILE_FORMAT=3:3
;TYPE=PLATED
;Layer: PTH_Through
;EasyEDA v6.5.23, 2023-06-02 07:25:32
;faa352a2f59442928f15561526b97a70,7a70a1584c9f4322b4499a83215dc486,10
;Gerber Generator version 0.2
;Holesize 1 = 0.600 mm
T01C0.600
;Holesize 2 = 0.813 mm
T02C0.813
;Holesize 3 = 0.850 mm
T03C0.850
;Holesize 4 = 0.900 mm
T04C0.900
;Holesize 5 = 0.901 mm
T05C0.901
;Holesize 6 = 0.915 mm
T06C0.915
;Holesize 7 = 1.000 mm
T07C1.000
;Holesize 8 = 1.101 mm
T08C1.101
;Holesize 9 = 1.200 mm
T09C1.200
;Holesize 10 = 1.321 mm
T10C1.321
;Holesize 11 = 1.600 mm
T11C1.600
;Holesize 12 = 1.800 mm
T12C1.800
%
G05
G90
T01
X025745Y131606G85X025745Y132806
X030896Y131608G85X030896Y132806
X025745Y120557G85X025745Y121757
X030896Y120559G85X030896Y121757
X050510Y131606G85X050510Y132806
X055661Y131608G85X055661Y132806
X050510Y120557G85X050510Y121757
X055661Y120559G85X055661Y121757
T02
X072771Y088265
X072771Y085725
X072771Y083185
X072771Y080645
X080391Y080645
X080391Y083185
X080391Y085725
X080391Y088265
X086487Y088265
X086487Y085725
X086487Y083185
X086487Y080645
X094107Y080645
X094107Y083185
X094107Y085725
X094107Y088265
X032512Y009906
X035052Y009906
X037592Y009906
X040132Y009906
X040132Y017526
X037592Y017526
X035052Y017526
X032512Y017526
T03
X028702Y107398
X028702Y101898
X045466Y107398
X045466Y101898
T04
X011201Y052222
X013741Y052222
X016281Y052222
X018821Y052222
X021361Y052222
X023901Y052222
X026441Y052222
X028981Y052222
X031521Y052222
X034061Y052222
X036601Y052222
X039141Y052222
X041681Y052222
X044221Y052222
X046761Y052222
X049301Y052222
X051841Y052222
X054381Y052222
X056921Y052222
X059461Y052222
X011201Y067462
X013741Y067462
X016281Y067462
X018821Y067462
X021361Y067462
X023901Y067462
X026441Y067462
X028981Y067462
X031521Y067462
X034061Y067462
X036601Y067462
X039141Y067462
X041681Y067462
X044221Y067462
X046761Y067462
X049301Y067462
X051841Y067462
X054381Y067462
X056921Y067462
X059461Y067462
T05
X069596Y133016
X069596Y123016
X104521Y133143
X104521Y123143
X011557Y015857G85X011557Y015852
X011557Y013318G85X011557Y013313
X011557Y038590G85X011557Y038585
X011557Y036051G85X011557Y036046
X011557Y026652G85X011557Y026647
X011557Y024113G85X011557Y024108
X069006Y042418
X090506Y042418
X033211Y033909
X041211Y033909
T06
X083566Y130302
X091186Y130302
X118491Y130429
X126111Y130429
X118491Y125349
X126111Y125349
X083566Y125222
X091186Y125222
X081788Y098642
X081788Y110142
X042961Y026543
X031461Y026543
X074803Y098769
X074803Y110269
X088900Y098642
X088900Y110142
T07
X027559Y087797
X027559Y082717
X128524Y070453
X128524Y079153
X041561Y041783
X032861Y041783
T08
X091907Y057404
X070907Y057404
X047749Y042418
X063249Y042418
X113665Y102365
X113665Y086865
X121031Y086865
X121031Y102365
X128270Y102365
X128270Y086865
X060960Y087757
X060960Y085217
X060960Y082677
X060452Y107188
X060452Y104648
X060452Y102108
T09
X115002Y074803
X107502Y074803
X044958Y088967
X044958Y081467
X096942Y071755
X067142Y071755
X085217Y035855
X085217Y006055
X074168Y006055
X074168Y035855
X063119Y035855
X063119Y006055
X052070Y006055
X052070Y035855
X110998Y050225
X110998Y057725
X023114Y038180G85X023114Y038980
X023114Y032620G85X023114Y033420
X023114Y027060G85X023114Y027860
X102997Y090217G85X102997Y089417
X102997Y095777G85X102997Y094977
X102997Y101337G85X102997Y100537
T10
X013459Y129502G85X013465Y129502
X013459Y124498G85X013465Y124498
X127892Y051854G85X127886Y051854
X127892Y056858G85X127886Y056858
X013078Y106949G85X013084Y106949
X013078Y101945G85X013084Y101945
X013332Y087518G85X013338Y087518
X013332Y082514G85X013338Y082514
T11
X128651Y032639
X123571Y032639
X118491Y032639
X103251Y032639
X108331Y032639
X113411Y032639
X128651Y010033
X123571Y010033
X118491Y010033
X103251Y010033
X108331Y010033
X113411Y010033
T12
X103197Y110236
X110697Y110236
X118197Y110236
X128197Y110236
M30
